# xmcd CD database file
#
# Track frame offsets:
#	150
#	15086
#	36021
#	57046
#	73917
#	93012
#	112050
#	138704
#	153925
#	172450
#	192035
#	208991
#	227004
#	245901
#	264707
#	283466
#	305838
#	323358
#
# Disc length: 4645 seconds
#
# Revision: 1
# Processed by: cddbd v1.4PL0 Copyright (c) Steve Scherf et al.
# Submitted via: CDex 1.50Beta6
#
DISCID=0e122312
DTITLE=B'z - B'z SUPER BEST 1988-2000 Disc-2
DYEAR=2000
DGENRE=Jazz
TTITLE0=Love me, I Love you (17th Single 07/07/95)
TTITLE1=LOVE PHANTOM (18th Single 11/10/95)
TTITLE2=mienai chikara -INVISIBLE ONE- (19th Single 06/03/96)
TTITLE3=MOVE (19th Single 06/03/96)
TTITLE4=Real Thing Shakes (20th Single 05/03/97)
TTITLE5=FIREBALL (21st Single 05/03/97)
TTITLE6=Calling (22nd Single 09/07/97)
TTITLE7=Liar! Liar! (23rd Single 08/10/97)
TTITLE8=samayoeru aoi dangan (24th Single 08/04/98)
TTITLE9=HOME (25th Single 08/07/98)
TTITLE10=Thde Wild Wind (25th Single 08/07/98)
TTITLE11=giri giri chop (26th Single 09/06/99)
TTITLE12=ONE (26th Single 09/06/99)
TTITLE13=konya tsuki no meru okani (27th Single 09/02/00)
TTITLE14=dakara sono tewo hanasite -MIXTURE STYLE- (27th Single 09/02/00)
TTITLE15=tooku made (Hiroshi Inaba Solo Single) 
TTITLE16=THE CHANGING  (Takahiro Matsumoto Solo Single)
TTITLE17=itsuka no Merry Christmas (From EP "Friends" 09/12/92)
EXTD=WJP-062 YEAR: 2000
EXTT0=
EXTT1=
EXTT2=
EXTT3=
EXTT4=
EXTT5=
EXTT6=
EXTT7=
EXTT8=
EXTT9=
EXTT10=
EXTT11=
EXTT12=
EXTT13=
EXTT14=
EXTT15=
EXTT16=
EXTT17=
PLAYORDER=
